<svg id="Layer_1" data-name="Layer 1" xmlns="http://www.w3.org/2000/svg" viewBox="0 0 595.28 841.89"><defs><style>.cls-1{fill:#24d192;}.cls-2{fill:#fff;}</style></defs><circle class="cls-1" cx="298.5" cy="421.5" r="233.32"/><path class="cls-2" d="M368.5,307.75h-140a43.58,43.58,0,0,0-43.75,43.75v140a43.58,43.58,0,0,0,43.75,43.75h140a43.58,43.58,0,0,0,43.75-43.75v-140A43.58,43.58,0,0,0,368.5,307.75ZM381.14,334H386v38.89H347.11V334ZM266.42,398.17c6.8-9.72,19.44-16.53,32.08-16.53s25.28,6.81,32.08,16.53a39.54,39.54,0,0,1,7.78,23.33,39.86,39.86,0,0,1-79.72,0A39.54,39.54,0,0,1,266.42,398.17ZM389.89,491.5a21.58,21.58,0,0,1-21.39,21.38h-140a21.58,21.58,0,0,1-21.39-21.38V398.17h34a62.46,62.46,0,0,0-4.86,23.33c0,34,28.19,62.22,62.22,62.22s62.22-28.19,62.22-62.22a62.46,62.46,0,0,0-4.86-23.33h34V491.5Z"/></svg>